<svg width="12px" height="10px" viewBox="0 0 12 10" version="1.1" xmlns="http://www.w3.org/2000/svg" xmlns:xlink="http://www.w3.org/1999/xlink">
    <g id="6.-Symbols" stroke="none" stroke-width="1" fill="none" fill-rule="evenodd">
        <g transform="translate(-6.000000, -7.000000)" fill="#5cb85c">
            <path d="M16.1725058,7.68319749 L10.4639723,14.0714639 C10.4271724,14.1126458 10.3639556,14.116198 10.3227737,14.079398 C10.319322,14.0763136 10.3160886,14.0729932 10.3130969,14.0694608 L7.73084414,11.02054 C7.45973603,10.7004368 6.98046464,10.6607185 6.66036152,10.9318266 C6.63212919,10.9557377 6.60568166,10.9816797 6.58123014,11.0094453 L6.56271811,11.0304664 C6.23839087,11.3987519 6.22922692,11.9479577 6.54108673,12.3268585 L9.64171289,16.0940314 C9.99268616,16.520454 10.62289,16.5816178 11.0493126,16.2306445 C11.0903087,16.196902 11.1285524,16.159948 11.1636808,16.1201329 L17.4147388,9.03508993 C17.7487848,8.65647727 17.7481898,8.08824376 17.4133518,7.71033145 L17.3915941,7.68577486 C17.0927614,7.34849962 16.5770939,7.31733583 16.2398187,7.6161686 C16.2160983,7.63718532 16.1936226,7.65956621 16.1725058,7.68319749 Z" id="tick"></path>
        </g>
    </g>
</svg>