<?xml version="1.0" encoding="UTF-8"?>
<svg version="1.1" width="100" height="100" 
    xmlns="http://www.w3.org/2000/svg" xmlns:xlink= "http://www.w3.org/1999/xlink">
    
    <rect stroke="#03a9f4" fill="#03a9f4" width="100" height="100" rx="15" />
    <g transform="translate(20,10)">
    
        <g transform="scale(0.3,0.3)">
            <path fill="white" stroke="white" d="m61.287 53.542c-2.649-2.041-9.702-7.678-16.271-14.452-4.366-4.505-6.223-9.015-9.533-12.429-2.998-3.092-5.725-4.894-5.725-4.894l-.768.792-5.188-5.35 2.004-2.067c.338-.348.338-.912 0-1.262l-.414-.427c.002-.002 5.898-7.936 13.353-5.742.866.257 1.638.694 1.857.471.298-.306-.837-1.482-1.502-2.162-9.431-9.65-19.834 1.104-19.839 1.109l-.367-.379c-.338-.348-.885-.348-1.222 0l-9.239 9.528c-.338.349-.338.914 0 1.262 0 0 1.131 1.979-1.835 2.335-1.194.145-1.942.414-2.366.769-.05.042-1.979 2.009-1.979 2.009-.338.348-.338.914 0 1.262l6.914 7.132c.336.348.885.348 1.223 0 0 0 1.906-1.99 1.947-2.042.343-.438.605-1.208.743-2.44.348-3.06 2.264-1.892 2.264-1.892.338.349.887.349 1.224 0l2.004-2.067 5.186 5.349-.768.793c0 0 1.748 2.813 4.746 5.905 3.309 3.413 7.683 5.328 12.05 9.833 6.567 6.774 12.032 14.047 14.014 16.78.748 1.029.867.934 1.78-.009l2.849-2.938 2.847-2.937c.915-.946 1.009-1.068.011-1.84"/>
            <path fill="white" stroke="white" d="m34.008 22.689c.792.717 1.635 1.519 2.497 2.408 1.592 1.642 2.924 3.479 4.259 5.44l8.942-8.943c3.261.793 6.84-.086 9.385-2.627 2.544-2.545 3.418-6.125 2.629-9.383l-8.116 8.116-5.76-1.543-1.544-5.763 8.114-8.111c-3.258-.793-6.838.084-9.381 2.63-2.545 2.543-3.42 6.122-2.631 9.38l-8.394 8.396"/>
            <path fill="white" stroke="white" d="m26.489 35.429c-.922-.95-1.748-1.878-2.479-2.743l-9.717 9.718c-3.259-.791-6.839.084-9.381 2.629-3.883 3.88-3.882 10.174 0 14.055 3.881 3.883 10.173 3.883 14.054 0 2.545-2.545 3.42-6.124 2.631-9.384l10.004-10.003c-1.84-1.338-3.567-2.679-5.112-4.272m-13.006 22.392l-5.761-1.544-1.543-5.762 4.218-4.215 5.76 1.541 1.543 5.763-4.217 4.217"/>
        </g>
    </g>
    <g transform="scale(0.75,0.75)">
        <g transform="translate(20,20)">
            <path stroke="white" stroke-width="1.5" fill="white" d="M 55,45 L 55,30 L 50,30 L 65,15 L 65,30 L 65,18 L 68,18 L 68,27 L 65,27 L 65,30 L 55,30 L 63,30 L 63,45 "/>
            <path stroke="white" stroke-width="1.5" fill="white" d="M 15,75 A 35,35 0,0,1 85,75 z"/>

    <!-- <use href="#cog-wheel" transform="translate(20,70)"/> -->
            <g transform="translate(20,70)">
                <g id="cog-wheel"  style="animation: rotate 3s linear infinite;" >
                    <g transform="scale(0.075,0.075)">
                        <g transform="translate(-255,-255)">
                            <path fill="white" stroke="white" stroke-width="20" d="M478.683,201.684h-16.401c-5.602,0-10.546-3.613-12.3-8.989c-3.266-10.01-7.355-19.853-12.152-29.255
                                c-2.517-4.931-1.541-10.911,2.428-14.881l11.611-11.61c12.991-12.992,12.991-34.129,0-47.119l-29.698-29.698
                                c-12.991-12.99-34.128-12.991-47.119,0l-11.61,11.611c-3.967,3.969-9.947,4.945-14.881,2.428
                                c-9.403-4.798-19.246-8.886-29.254-12.151c-5.376-1.755-8.989-6.698-8.989-12.3V33.318c0-18.372-14.946-33.318-33.318-33.318
                                h-41.999c-18.372,0-33.318,14.946-33.318,33.318v16.399c0,5.602-3.613,10.546-8.989,12.3
                                c-10.01,3.266-19.853,7.355-29.255,12.152c-4.931,2.517-10.911,1.541-14.881-2.428l-11.61-11.611
                                c-12.992-12.99-34.129-12.989-47.119,0L60.131,89.829c-12.991,12.992-12.991,34.129,0,47.119l11.611,11.61
                                c3.969,3.97,4.946,9.949,2.429,14.881c-4.798,9.403-8.887,19.246-12.152,29.255c-1.755,5.376-6.698,8.989-12.3,8.989H33.318
                                C14.946,201.683,0,216.629,0,235V277c0,18.372,14.946,33.318,33.318,33.318h16.4c5.602,0,10.546,3.613,12.3,8.989
                                c3.267,10.01,7.355,19.854,12.152,29.255c2.517,4.931,1.541,10.911-2.428,14.881l-11.611,11.61
                                c-12.991,12.992-12.991,34.129,0,47.119l29.698,29.698c12.992,12.99,34.129,12.99,47.119,0l11.61-11.611
                                c3.969-3.969,9.949-4.945,14.881-2.428c9.403,4.798,19.246,8.885,29.254,12.151c5.376,1.755,8.989,6.698,8.989,12.3v16.401
                                C201.682,497.055,216.628,512,235,512h41.999c18.372,0,33.318-14.946,33.319-33.317v-16.401c0-5.602,3.613-10.546,8.989-12.3
                                c10.01-3.266,19.853-7.355,29.255-12.152c4.932-2.517,10.912-1.54,14.881,2.428l11.61,11.611
                                c12.992,12.991,34.129,12.99,47.119,0l29.698-29.698c12.991-12.992,12.991-34.129,0-47.119l-11.611-11.61
                                c-3.97-3.968-4.946-9.949-2.428-14.881c4.798-9.403,8.886-19.246,12.151-29.254c1.755-5.376,6.698-8.989,12.3-8.989h16.401
                                c18.372,0,33.318-14.946,33.318-33.318v-41.999C512.001,216.63,497.055,201.684,478.683,201.68z"/>
                        </g>
                    </g>
                </g>
            </g>

            <g transform="translate(80,70)">

                <g id="cog-wheel"  style="animation: rotate 3s linear infinite;" >
                    <g transform="scale(0.075,0.075)">
                        <g transform="translate(-255,-255)">
                            <path fill="white" stroke="white" stroke-width="20" d="M478.683,201.684h-16.401c-5.602,0-10.546-3.613-12.3-8.989c-3.266-10.01-7.355-19.853-12.152-29.255
                                c-2.517-4.931-1.541-10.911,2.428-14.881l11.611-11.61c12.991-12.992,12.991-34.129,0-47.119l-29.698-29.698
                                c-12.991-12.99-34.128-12.991-47.119,0l-11.61,11.611c-3.967,3.969-9.947,4.945-14.881,2.428
                                c-9.403-4.798-19.246-8.886-29.254-12.151c-5.376-1.755-8.989-6.698-8.989-12.3V33.318c0-18.372-14.946-33.318-33.318-33.318
                                h-41.999c-18.372,0-33.318,14.946-33.318,33.318v16.399c0,5.602-3.613,10.546-8.989,12.3
                                c-10.01,3.266-19.853,7.355-29.255,12.152c-4.931,2.517-10.911,1.541-14.881-2.428l-11.61-11.611
                                c-12.992-12.99-34.129-12.989-47.119,0L60.131,89.829c-12.991,12.992-12.991,34.129,0,47.119l11.611,11.61
                                c3.969,3.97,4.946,9.949,2.429,14.881c-4.798,9.403-8.887,19.246-12.152,29.255c-1.755,5.376-6.698,8.989-12.3,8.989H33.318
                                C14.946,201.683,0,216.629,0,235V277c0,18.372,14.946,33.318,33.318,33.318h16.4c5.602,0,10.546,3.613,12.3,8.989
                                c3.267,10.01,7.355,19.854,12.152,29.255c2.517,4.931,1.541,10.911-2.428,14.881l-11.611,11.61
                                c-12.991,12.992-12.991,34.129,0,47.119l29.698,29.698c12.992,12.99,34.129,12.99,47.119,0l11.61-11.611
                                c3.969-3.969,9.949-4.945,14.881-2.428c9.403,4.798,19.246,8.885,29.254,12.151c5.376,1.755,8.989,6.698,8.989,12.3v16.401
                                C201.682,497.055,216.628,512,235,512h41.999c18.372,0,33.318-14.946,33.319-33.317v-16.401c0-5.602,3.613-10.546,8.989-12.3
                                c10.01-3.266,19.853-7.355,29.255-12.152c4.932-2.517,10.912-1.54,14.881,2.428l11.61,11.611
                                c12.992,12.991,34.129,12.99,47.119,0l29.698-29.698c12.991-12.992,12.991-34.129,0-47.119l-11.611-11.61
                                c-3.97-3.968-4.946-9.949-2.428-14.881c4.798-9.403,8.886-19.246,12.151-29.254c1.755-5.376,6.698-8.989,12.3-8.989h16.401
                                c18.372,0,33.318-14.946,33.318-33.318v-41.999C512.001,216.63,497.055,201.684,478.683,201.68z"/>
                        </g>
                    </g>
                </g>
            </g>
        </g>
    </g>
</svg>