<?xml version="1.0" encoding="UTF-8"?>
<svg version="1.1" width="100" height="100" 
    xmlns="http://www.w3.org/2000/svg" xmlns:xlink= "http://www.w3.org/1999/xlink">
    
    <rect stroke="#03a9f4" fill="#03a9f4" width="100" height="100" rx="15" />
    <g transform="translate(10,0)">
        <g transform="scale(0.4,0.4)">
            <linearGradient
            id="linearGradient3224">
            <stop
                id="stop3226"
                style="stop-color:#463c4f;stop-opacity:1"
                offset="0" />
            <stop
                id="stop3228"
                style="stop-color:#0f0f0f;stop-opacity:1"
                offset="1" />
            </linearGradient>
            <radialGradient
            cx="48"
            cy="63.366764"
            r="36"
            fx="48"
            fy="63.366764"
            id="radialGradient2898"
            xlink:href="#linearGradient3224"
            gradientUnits="userSpaceOnUse"
            gradientTransform="matrix(1.6082054,0,0,1.1986693,-29.193856,-4.502573)" /> -->

            <g
                id="layer3">
                <rect
                width="72"
                height="48"
                rx="3"
                ry="3"
                x="12"
                y="24"
                id="rect3172"
                style="fill:url(#radialGradient2898);fill-opacity:1;fill-rule:nonzero;stroke:none;display:inline" />
                <path
                d="m 15,24 c -1.662,0 -3,1.338 -3,3 l 0,1 0,8.0625 0,18.0625 C 31.088406,46.205806 56.274344,41.236796 84,40.8125 l 0,-4.75 L 84,28 84,27 c 0,-1.662 -1.338,-3 -3,-3 l -1,0 -64,0 -1,0 z"
                
                id="rect3348"
                style="opacity:0.15;fill:#d9c6ed;fill-opacity:1;fill-rule:nonzero;stroke:none;display:inline" />
                <path
                d="m 12,69 0,1 c 0,1.662 1.338,3 3,3 l 66,0 c 1.662,0 3,-1.338 3,-3 l 0,-1 c 0,1.662 -1.338,3 -3,3 l -66,0 c -1.662,0 -3,-1.338 -3,-3 z"
                
                id="rect2909"
                style="fill:#ffffff;fill-opacity:1;fill-rule:nonzero;stroke:none;display:inline" />
                <path
                d="m 20,46 0,4.002171 8.011647,3.093117 L 20,56.127758 20,60 31.946726,55.083525 32,51.24142 20,46 z"
                
                id="path3213"
                style="font-size:48px;font-style:normal;font-variant:normal;font-weight:bold;font-stretch:normal;text-align:start;line-height:125%;writing-mode:lr-tb;text-anchor:start;fill:#ffffff;fill-opacity:1;stroke:none;display:inline;font-family:MgOpen Canonica;-inkscape-font-specification:MgOpen Canonica Bold" />
                <path
                d="m 32,60 0,4 12,0 0,-4 -12,0 z"
                
                id="path3557"
                style="font-size:48px;font-style:normal;font-variant:normal;font-weight:bold;font-stretch:normal;text-align:start;line-height:125%;writing-mode:lr-tb;text-anchor:start;fill:#ffffff;fill-opacity:1;stroke:none;display:inline;font-family:MgOpen Canonica;-inkscape-font-specification:MgOpen Canonica Bold" />
            </g>
        </g>
    </g>

    <g transform="scale(0.75,0.75)">
        <g transform="translate(20,20)">

    <path stroke="white" stroke-width="1.5" fill="white" d="M 55,45 L 55,30 L 50,30 L 65,15 L 65,30 L 65,18 L 68,18 L 68,27 L 65,27 L 65,30 L 55,30 L 63,30 L 63,45 "/>
    <path stroke="white" stroke-width="1.5" fill="white" d="M 15,75 A 35,35 0,0,1 85,75 z"/>

    <!-- <use href="#cog-wheel" transform="translate(20,70)"/> -->
    <g transform="translate(20,70)">
    <g id="cog-wheel"  style="animation: rotate 3s linear infinite;" >
        <g transform="scale(0.075,0.075)">
        <g transform="translate(-255,-255)">
        <path fill="white" stroke="white" stroke-width="20" d="M478.683,201.684h-16.401c-5.602,0-10.546-3.613-12.3-8.989c-3.266-10.01-7.355-19.853-12.152-29.255
            c-2.517-4.931-1.541-10.911,2.428-14.881l11.611-11.61c12.991-12.992,12.991-34.129,0-47.119l-29.698-29.698
            c-12.991-12.99-34.128-12.991-47.119,0l-11.61,11.611c-3.967,3.969-9.947,4.945-14.881,2.428
            c-9.403-4.798-19.246-8.886-29.254-12.151c-5.376-1.755-8.989-6.698-8.989-12.3V33.318c0-18.372-14.946-33.318-33.318-33.318
            h-41.999c-18.372,0-33.318,14.946-33.318,33.318v16.399c0,5.602-3.613,10.546-8.989,12.3
            c-10.01,3.266-19.853,7.355-29.255,12.152c-4.931,2.517-10.911,1.541-14.881-2.428l-11.61-11.611
            c-12.992-12.99-34.129-12.989-47.119,0L60.131,89.829c-12.991,12.992-12.991,34.129,0,47.119l11.611,11.61
            c3.969,3.97,4.946,9.949,2.429,14.881c-4.798,9.403-8.887,19.246-12.152,29.255c-1.755,5.376-6.698,8.989-12.3,8.989H33.318
            C14.946,201.683,0,216.629,0,235V277c0,18.372,14.946,33.318,33.318,33.318h16.4c5.602,0,10.546,3.613,12.3,8.989
            c3.267,10.01,7.355,19.854,12.152,29.255c2.517,4.931,1.541,10.911-2.428,14.881l-11.611,11.61
            c-12.991,12.992-12.991,34.129,0,47.119l29.698,29.698c12.992,12.99,34.129,12.99,47.119,0l11.61-11.611
            c3.969-3.969,9.949-4.945,14.881-2.428c9.403,4.798,19.246,8.885,29.254,12.151c5.376,1.755,8.989,6.698,8.989,12.3v16.401
            C201.682,497.055,216.628,512,235,512h41.999c18.372,0,33.318-14.946,33.319-33.317v-16.401c0-5.602,3.613-10.546,8.989-12.3
            c10.01-3.266,19.853-7.355,29.255-12.152c4.932-2.517,10.912-1.54,14.881,2.428l11.61,11.611
            c12.992,12.991,34.129,12.99,47.119,0l29.698-29.698c12.991-12.992,12.991-34.129,0-47.119l-11.611-11.61
            c-3.97-3.968-4.946-9.949-2.428-14.881c4.798-9.403,8.886-19.246,12.151-29.254c1.755-5.376,6.698-8.989,12.3-8.989h16.401
            c18.372,0,33.318-14.946,33.318-33.318v-41.999C512.001,216.63,497.055,201.684,478.683,201.68z"/>
    </g>
    </g>
    </g>
    </g>

    <g transform="translate(80,70)">

    <g id="cog-wheel"  style="animation: rotate 3s linear infinite;" >
        <g transform="scale(0.075,0.075)">
        <g transform="translate(-255,-255)">
        <path fill="white" stroke="white" stroke-width="20" d="M478.683,201.684h-16.401c-5.602,0-10.546-3.613-12.3-8.989c-3.266-10.01-7.355-19.853-12.152-29.255
            c-2.517-4.931-1.541-10.911,2.428-14.881l11.611-11.61c12.991-12.992,12.991-34.129,0-47.119l-29.698-29.698
            c-12.991-12.99-34.128-12.991-47.119,0l-11.61,11.611c-3.967,3.969-9.947,4.945-14.881,2.428
            c-9.403-4.798-19.246-8.886-29.254-12.151c-5.376-1.755-8.989-6.698-8.989-12.3V33.318c0-18.372-14.946-33.318-33.318-33.318
            h-41.999c-18.372,0-33.318,14.946-33.318,33.318v16.399c0,5.602-3.613,10.546-8.989,12.3
            c-10.01,3.266-19.853,7.355-29.255,12.152c-4.931,2.517-10.911,1.541-14.881-2.428l-11.61-11.611
            c-12.992-12.99-34.129-12.989-47.119,0L60.131,89.829c-12.991,12.992-12.991,34.129,0,47.119l11.611,11.61
            c3.969,3.97,4.946,9.949,2.429,14.881c-4.798,9.403-8.887,19.246-12.152,29.255c-1.755,5.376-6.698,8.989-12.3,8.989H33.318
            C14.946,201.683,0,216.629,0,235V277c0,18.372,14.946,33.318,33.318,33.318h16.4c5.602,0,10.546,3.613,12.3,8.989
            c3.267,10.01,7.355,19.854,12.152,29.255c2.517,4.931,1.541,10.911-2.428,14.881l-11.611,11.61
            c-12.991,12.992-12.991,34.129,0,47.119l29.698,29.698c12.992,12.99,34.129,12.99,47.119,0l11.61-11.611
            c3.969-3.969,9.949-4.945,14.881-2.428c9.403,4.798,19.246,8.885,29.254,12.151c5.376,1.755,8.989,6.698,8.989,12.3v16.401
            C201.682,497.055,216.628,512,235,512h41.999c18.372,0,33.318-14.946,33.319-33.317v-16.401c0-5.602,3.613-10.546,8.989-12.3
            c10.01-3.266,19.853-7.355,29.255-12.152c4.932-2.517,10.912-1.54,14.881,2.428l11.61,11.611
            c12.992,12.991,34.129,12.99,47.119,0l29.698-29.698c12.991-12.992,12.991-34.129,0-47.119l-11.611-11.61
            c-3.97-3.968-4.946-9.949-2.428-14.881c4.798-9.403,8.886-19.246,12.151-29.254c1.755-5.376,6.698-8.989,12.3-8.989h16.401
            c18.372,0,33.318-14.946,33.318-33.318v-41.999C512.001,216.63,497.055,201.684,478.683,201.68z"/>
    </g>
    </g>
    </g>
    </g>
    </g>
    </g>
</svg>